<svg width="2463" height="301" viewBox="0 0 2463 301" fill="none" xmlns="http://www.w3.org/2000/svg">
<path fill-rule="evenodd" clip-rule="evenodd" d="M135.502 30.8878C133.963 28.2836 130.623 27.389 127.988 28.875C110.753 38.5969 51.5448 71.9951 34.2707 81.7389C33.0153 82.4466 32.0979 83.6304 31.7252 85.0229C31.3524 86.4145 31.5552 87.8985 32.2888 89.1389C32.2888 89.1399 32.2888 89.1399 32.2898 89.1399C33.8284 91.7451 37.1681 92.6397 39.8031 91.1527C57.0384 81.4307 116.247 48.0336 133.521 38.2888C134.775 37.5811 135.694 36.3973 136.066 35.0058C136.439 33.6132 136.236 32.1302 135.503 30.8888L135.502 30.8878V30.8878Z" fill="#0A68F5"/>
<path fill-rule="evenodd" clip-rule="evenodd" d="M168.785 33.3249C167.246 30.7207 163.906 29.8262 161.272 31.3131C140.223 43.186 55.3676 91.0503 34.2707 102.951C33.0153 103.659 32.0979 104.842 31.7252 106.234C31.3524 107.627 31.5552 109.11 32.2888 110.351C32.2888 110.351 32.2888 110.352 32.2898 110.352C33.8284 112.956 37.1681 113.851 39.8031 112.365C60.8513 100.492 145.707 52.6267 166.804 40.727C168.059 40.0192 168.976 38.8354 169.349 37.4429C169.722 36.0514 169.519 34.5674 168.786 33.3269C168.786 33.3259 168.786 33.3259 168.785 33.3249V33.3249Z" fill="#0A68F5"/>
<path fill-rule="evenodd" clip-rule="evenodd" d="M193.561 40.5348C192.023 37.9306 188.683 37.0361 186.048 38.522C164.204 50.8432 73.4229 102.051 51.5289 114.4C50.2746 115.109 49.3561 116.292 48.9834 117.684C48.6107 119.077 48.8134 120.56 49.547 121.801C49.547 121.801 49.548 121.801 49.548 121.802C51.0866 124.406 54.4263 125.301 57.0613 123.815C78.9046 111.493 169.686 60.2858 191.58 47.9358C192.835 47.2281 193.752 46.0443 194.126 44.6528C194.498 43.2603 194.296 41.7773 193.562 40.5358L193.561 40.5348V40.5348Z" fill="#0A68F5"/>
<path fill-rule="evenodd" clip-rule="evenodd" d="M202.574 57.3538C201.035 54.7496 197.695 53.8551 195.061 55.342C176.128 66.0212 106.068 105.54 87.0924 116.244C85.837 116.952 84.9196 118.136 84.5458 119.528C84.1731 120.92 84.3759 122.404 85.1094 123.644L85.1104 123.645C86.649 126.249 89.9888 127.145 92.6238 125.658C111.557 114.979 181.616 75.4598 200.593 64.7558C201.847 64.0481 202.765 62.8643 203.138 61.4718C203.511 60.0803 203.308 58.5963 202.575 57.3558C202.575 57.3548 202.574 57.3548 202.574 57.3538V57.3538Z" fill="#0A68F5"/>
<path fill-rule="evenodd" clip-rule="evenodd" d="M233.385 63.0048C231.846 60.3996 228.507 59.5051 225.872 60.992C205.696 72.3729 127.112 116.7 106.89 128.106C105.634 128.814 104.717 129.998 104.344 131.39C103.971 132.782 104.174 134.266 104.908 135.506C104.908 135.507 104.908 135.507 104.908 135.507C106.447 138.113 109.787 139.007 112.421 137.52C132.599 126.139 211.181 81.8126 231.403 70.4058C232.659 69.6981 233.576 68.5143 233.949 67.1218C234.322 65.7303 234.119 64.2463 233.385 63.0058V63.0048V63.0048Z" fill="#0A68F5"/>
<path fill-rule="evenodd" clip-rule="evenodd" d="M261.82 70.606C260.282 68.0018 256.942 67.1072 254.307 68.5932C232.377 80.9641 140.937 132.543 118.956 144.941C117.701 145.65 116.783 146.833 116.411 148.225C116.037 149.618 116.241 151.101 116.973 152.341C116.974 152.342 116.974 152.342 116.974 152.343C118.513 154.948 121.852 155.842 124.487 154.356C146.418 141.985 237.859 90.4067 259.839 78.008C261.095 77.2993 262.012 76.1165 262.385 74.724C262.758 73.3314 262.555 71.8484 261.821 70.608C261.821 70.607 261.821 70.607 261.82 70.606V70.606Z" fill="#0A68F5"/>
<path fill-rule="evenodd" clip-rule="evenodd" d="M280.873 82.0088C279.334 79.4046 275.994 78.51 273.36 79.996C250.669 92.7952 153.353 147.689 130.61 160.517C129.355 161.226 128.438 162.408 128.065 163.801C127.692 165.193 127.895 166.676 128.629 167.917C128.629 167.918 128.629 167.918 128.629 167.919C130.168 170.523 133.507 171.418 136.142 169.932C158.833 157.132 256.149 102.239 278.892 89.4098C280.147 88.7021 281.065 87.5183 281.437 86.1267C281.81 84.7342 281.607 83.2502 280.874 82.0097C280.874 82.0097 280.874 82.0088 280.873 82.0088V82.0088Z" fill="#0A68F5"/>
<path fill-rule="evenodd" clip-rule="evenodd" d="M280.873 106.206C279.334 103.602 275.994 102.707 273.36 104.193C250.669 116.992 153.353 171.886 130.61 184.715C129.355 185.423 128.438 186.606 128.065 187.998C127.692 189.39 127.895 190.874 128.629 192.115V192.116C130.168 194.72 133.507 195.615 136.142 194.129C158.833 181.329 256.149 126.436 278.892 113.608C280.147 112.899 281.065 111.716 281.437 110.324C281.81 108.931 281.607 107.448 280.874 106.208C280.874 106.207 280.874 106.207 280.873 106.206V106.206Z" fill="#0A68F5"/>
<path fill-rule="evenodd" clip-rule="evenodd" d="M260.108 140.965C258.569 138.361 255.23 137.466 252.595 138.953C234.734 149.028 171.635 184.621 153.734 194.718C152.478 195.426 151.561 196.61 151.188 198.001C150.815 199.394 151.018 200.877 151.752 202.118C151.752 202.118 151.752 202.118 151.752 202.119C153.291 204.723 156.63 205.618 159.265 204.132C177.126 194.057 240.225 158.464 258.126 148.367C259.382 147.659 260.299 146.475 260.672 145.083C261.046 143.691 260.842 142.207 260.109 140.967C260.108 140.966 260.108 140.966 260.108 140.965V140.965Z" fill="#0A68F5"/>
<path fill-rule="evenodd" clip-rule="evenodd" d="M253.926 166.049C252.388 163.445 249.048 162.55 246.413 164.036C229.913 173.344 175.126 204.247 158.591 213.576C157.335 214.283 156.418 215.467 156.044 216.859C155.671 218.251 155.875 219.734 156.608 220.976L156.609 220.977C158.147 223.581 161.487 224.475 164.122 222.989C180.622 213.682 235.409 182.779 251.944 173.45C253.2 172.743 254.117 171.559 254.491 170.167C254.864 168.775 254.66 167.292 253.927 166.05L253.926 166.049Z" fill="#0A68F5"/>
<path fill-rule="evenodd" clip-rule="evenodd" d="M218.398 208.943C216.86 206.339 213.52 205.444 210.885 206.93C198.27 214.047 163.987 233.385 151.344 240.517C150.088 241.225 149.171 242.408 148.797 243.8C148.424 245.192 148.628 246.675 149.361 247.917L149.362 247.918C150.9 250.522 154.24 251.417 156.875 249.931C169.491 242.814 203.774 223.476 216.417 216.345C217.673 215.636 218.59 214.453 218.963 213.061C219.336 211.669 219.133 210.185 218.399 208.945C218.399 208.944 218.399 208.944 218.398 208.943Z" fill="#0A68F5"/>
<path fill-rule="evenodd" clip-rule="evenodd" d="M183.845 251.062C182.306 248.456 178.967 247.562 176.332 249.049C171.338 251.866 163.519 256.276 158.515 259.099C157.26 259.807 156.342 260.99 155.969 262.382C155.597 263.774 155.8 265.258 156.533 266.499C156.533 266.499 156.533 266.5 156.534 266.5C158.073 269.104 161.412 269.999 164.047 268.513C169.041 265.696 176.861 261.285 181.864 258.463C183.12 257.755 184.037 256.571 184.41 255.179C184.782 253.787 184.58 252.303 183.846 251.063C183.846 251.062 183.846 251.062 183.845 251.062V251.062Z" fill="#0A68F5"/>
<path fill-rule="evenodd" clip-rule="evenodd" d="M91.8987 36.295C90.36 33.6908 87.0203 32.7962 84.3853 34.2822C77.1682 38.3535 63.5051 46.0606 56.2731 50.1399C55.0177 50.8486 54.1003 52.0314 53.7275 53.4239C53.3548 54.8155 53.5576 56.2994 54.2911 57.5399C54.2911 57.5409 54.2911 57.5409 54.2921 57.5419C55.8308 60.1461 59.1705 61.0406 61.8055 59.5547C69.0226 55.4834 82.6856 47.7762 89.9167 43.697C91.1721 42.9883 92.0895 41.8055 92.4632 40.4129C92.836 39.0214 92.6332 37.5374 91.8997 36.2969C91.8997 36.296 91.8987 36.296 91.8987 36.295Z" fill="#0A68F5"/>
<path d="M400.801 169.794C400.801 158.317 398.162 149.126 392.884 142.222C387.606 135.319 379.773 131.868 369.387 131.868C365.983 131.868 362.833 131.993 359.939 132.242C357.044 132.492 354.66 132.783 352.787 133.116V200.235C355.171 201.733 358.278 202.98 362.11 203.978C365.94 204.976 369.814 205.475 373.729 205.475C391.777 205.475 400.801 193.581 400.801 169.794V169.794ZM439.62 168.796C439.62 178.943 438.343 188.175 435.789 196.493C433.236 204.81 429.489 211.963 424.552 217.951C419.614 223.94 413.485 228.598 406.164 231.925C398.843 235.251 390.415 236.914 380.881 236.914C375.603 236.914 370.665 236.415 366.068 235.417C361.471 234.419 357.044 233.005 352.787 231.176V280.58H314.734V107.664C318.14 106.666 322.056 105.71 326.482 104.796C330.909 103.88 335.549 103.09 340.402 102.425C345.253 101.759 350.191 101.218 355.214 100.803C360.236 100.388 365.046 100.179 369.643 100.179C380.71 100.179 390.585 101.801 399.268 105.045C407.951 108.289 415.273 112.863 421.232 118.768C427.191 124.673 431.746 131.868 434.896 140.352C438.045 148.835 439.62 158.317 439.62 168.796V168.796Z" fill="#021A3D"/>
<path d="M562.709 136.112C559.305 135.28 555.303 134.408 550.706 133.492C546.109 132.578 541.172 132.12 535.894 132.12C533.51 132.12 530.658 132.328 527.338 132.744C524.018 133.16 521.506 133.617 519.804 134.116V234.422H481.751V110.163C488.561 107.834 496.607 105.629 505.885 103.55C515.165 101.471 525.508 100.431 536.915 100.431C538.958 100.431 541.427 100.556 544.322 100.806C547.216 101.055 550.111 101.388 553.005 101.804C555.899 102.219 558.794 102.719 561.688 103.301C564.583 103.883 567.051 104.59 569.094 105.422L562.709 136.112V136.112Z" fill="#021A3D"/>
<path d="M593.369 169.798C593.369 158.155 595.2 147.966 598.861 139.233C602.52 130.5 607.33 123.222 613.29 117.4C619.249 111.578 626.102 107.169 633.848 104.176C641.595 101.182 649.555 99.6839 657.727 99.6839C676.796 99.6839 691.865 105.381 702.931 116.776C713.998 128.171 719.532 144.93 719.532 167.054C719.532 169.216 719.446 171.587 719.276 174.165C719.106 176.744 718.936 179.031 718.765 181.027H632.444C633.295 188.678 636.956 194.75 643.426 199.241C649.896 203.733 658.579 205.978 669.476 205.978C676.456 205.978 683.309 205.355 690.034 204.107C696.759 202.859 702.251 201.32 706.507 199.491L711.615 229.682C709.571 230.68 706.848 231.679 703.442 232.677C700.037 233.675 696.249 234.548 692.077 235.297C687.906 236.046 683.437 236.669 678.67 237.168C673.902 237.667 669.135 237.916 664.368 237.916C652.279 237.916 641.766 236.17 632.827 232.677C623.889 229.183 616.482 224.401 610.608 218.329C604.734 212.258 600.392 205.064 597.583 196.746C594.774 188.429 593.369 179.446 593.369 169.798V169.798ZM682.756 155.576C682.585 152.416 682.032 149.338 681.095 146.343C680.159 143.35 678.712 140.688 676.753 138.359C674.796 136.03 672.327 134.118 669.347 132.621C666.369 131.123 662.665 130.374 658.238 130.374C653.982 130.374 650.321 131.082 647.257 132.496C644.192 133.91 641.638 135.781 639.595 138.109C637.552 140.438 635.977 143.142 634.87 146.219C633.764 149.296 632.955 152.416 632.444 155.576H682.756V155.576Z" fill="#021A3D"/>
<path d="M819.885 40.7929C827.035 40.7929 833.59 41.4996 839.549 42.913C845.508 44.3274 850.105 45.7001 853.341 47.03L845.935 76.7227C842.529 75.2258 838.826 74.1026 834.825 73.3541C830.823 72.6057 827.121 72.2319 823.715 72.2319C819.118 72.2319 815.245 72.8552 812.095 74.1026C808.945 75.351 806.476 77.0556 804.689 79.2185C802.901 81.3804 801.624 83.9587 800.858 86.9535C800.092 89.9473 799.708 93.1906 799.708 96.6844V103.172H846.7V134.112H799.708V234.418H761.655V96.1854C761.655 79.2185 766.551 65.7444 776.34 55.764C786.131 45.7826 800.646 40.7929 819.885 40.7929V40.7929Z" fill="#021A3D"/>
<path d="M873.797 169.798C873.797 158.155 875.627 147.966 879.287 139.233C882.948 130.5 887.758 123.222 893.718 117.4C899.676 111.578 906.529 107.169 914.276 104.176C922.023 101.182 929.982 99.6839 938.155 99.6839C957.224 99.6839 972.292 105.381 983.359 116.776C994.426 128.171 999.959 144.93 999.959 167.054C999.959 169.216 999.874 171.587 999.704 174.165C999.534 176.744 999.363 179.031 999.193 181.027H912.871C913.723 188.678 917.383 194.75 923.854 199.241C930.323 203.733 939.006 205.978 949.903 205.978C956.884 205.978 963.736 205.355 970.461 204.107C977.187 202.859 982.678 201.32 986.934 199.491L992.042 229.682C989.999 230.68 987.274 231.679 983.87 232.677C980.465 233.675 976.676 234.548 972.505 235.297C968.333 236.046 963.865 236.669 959.096 237.168C954.329 237.667 949.562 237.916 944.795 237.916C932.707 237.916 922.193 236.17 913.255 232.677C904.316 229.183 896.909 224.401 891.036 218.329C885.162 212.258 880.82 205.064 878.011 196.746C875.201 188.429 873.797 179.446 873.797 169.798V169.798ZM963.183 155.576C963.013 152.416 962.459 149.338 961.523 146.343C960.586 143.35 959.139 140.688 957.181 138.359C955.223 136.03 952.755 134.118 949.775 132.621C946.795 131.123 943.093 130.374 938.666 130.374C934.409 130.374 930.749 131.082 927.684 132.496C924.619 133.91 922.065 135.781 920.022 138.109C917.979 140.438 916.404 143.142 915.298 146.219C914.191 149.296 913.382 152.416 912.871 155.576H963.183V155.576Z" fill="#021A3D"/>
<path d="M1080.16 234.416H1042.1V103.171H1080.16V234.416ZM1083.73 65.244C1083.73 72.0636 1081.48 77.429 1076.96 81.3373C1072.45 85.2465 1067.13 87.2017 1061 87.2017C1054.87 87.2017 1049.55 85.2465 1045.04 81.3373C1040.53 77.429 1038.27 72.0636 1038.27 65.244C1038.27 58.4235 1040.53 53.059 1045.04 49.1498C1049.55 45.2405 1054.87 43.2864 1061 43.2864C1067.13 43.2864 1072.45 45.2405 1076.96 49.1498C1081.48 53.059 1083.73 58.4235 1083.73 65.244Z" fill="#021A3D"/>
<path d="M1127.37 70.493L1165.42 64.5043V103.179H1211.13V134.119H1165.42V180.28C1165.42 188.099 1166.82 194.336 1169.63 198.993C1172.44 203.651 1178.1 205.98 1186.62 205.98C1190.7 205.98 1194.92 205.606 1199.26 204.858C1203.6 204.108 1207.56 203.07 1211.13 201.739L1216.5 230.682C1211.9 232.512 1206.79 234.092 1201.17 235.423C1195.55 236.754 1188.66 237.419 1180.49 237.419C1170.1 237.419 1161.5 236.047 1154.69 233.302C1147.88 230.558 1142.43 226.732 1138.35 221.825C1134.26 216.918 1131.41 210.971 1129.79 203.984C1128.17 196.998 1127.37 189.263 1127.37 180.779V70.493V70.493Z" fill="#021A3D"/>
<path d="M1369.5 229.931C1363.03 231.761 1354.69 233.466 1344.47 235.047C1334.26 236.626 1323.53 237.416 1312.29 237.416C1300.88 237.416 1291.39 235.919 1283.82 232.925C1276.24 229.931 1270.24 225.731 1265.81 220.325C1261.38 214.919 1258.23 208.473 1256.36 200.987C1254.49 193.502 1253.55 185.268 1253.55 176.284V103.177H1291.61V171.794C1291.61 183.77 1293.22 192.42 1296.46 197.743C1299.69 203.067 1305.74 205.728 1314.59 205.728C1317.31 205.728 1320.21 205.603 1323.27 205.354C1326.34 205.104 1329.06 204.813 1331.45 204.48V103.177H1369.5V229.931V229.931Z" fill="#021A3D"/>
<path d="M1498.99 136.112C1495.58 135.28 1491.58 134.408 1486.98 133.492C1482.39 132.578 1477.45 132.12 1472.17 132.12C1469.79 132.12 1466.94 132.328 1463.62 132.744C1460.29 133.16 1457.78 133.617 1456.08 134.116V234.422H1418.03V110.163C1424.84 107.834 1432.88 105.629 1442.16 103.55C1451.44 101.471 1461.78 100.431 1473.19 100.431C1475.24 100.431 1477.7 100.556 1480.6 100.806C1483.49 101.055 1486.39 101.388 1489.28 101.804C1492.18 102.219 1495.07 102.719 1497.97 103.301C1500.86 103.883 1503.33 104.59 1505.37 105.422L1498.99 136.112V136.112Z" fill="#021A3D"/>
<path d="M1587.34 208.474C1591.09 208.474 1594.66 208.391 1598.07 208.225C1601.47 208.058 1604.2 207.808 1606.24 207.475V179.28C1604.71 178.947 1602.41 178.614 1599.35 178.282C1596.28 177.949 1593.47 177.783 1590.92 177.783C1587.34 177.783 1583.98 177.991 1580.83 178.407C1577.68 178.823 1574.91 179.612 1572.53 180.777C1570.15 181.941 1568.27 183.522 1566.91 185.518C1565.55 187.514 1564.87 190.009 1564.87 193.004C1564.87 198.826 1566.87 202.859 1570.87 205.105C1574.87 207.351 1580.36 208.474 1587.34 208.474V208.474ZM1584.28 99.6839C1595.51 99.6839 1604.88 100.931 1612.37 103.427C1619.86 105.922 1625.86 109.498 1630.37 114.156C1634.89 118.814 1638.08 124.469 1639.95 131.123C1641.82 137.777 1642.76 145.179 1642.76 153.33V230.68C1637.31 231.845 1629.74 233.218 1620.03 234.797C1610.33 236.378 1598.58 237.168 1584.79 237.168C1576.1 237.168 1568.23 236.419 1561.16 234.922C1554.1 233.425 1548.01 230.971 1542.9 227.562C1537.8 224.152 1533.88 219.702 1531.16 214.212C1528.43 208.723 1527.07 201.986 1527.07 194.002C1527.07 186.349 1528.64 179.862 1531.79 174.539C1534.94 169.216 1539.16 164.974 1544.44 161.813C1549.71 158.654 1555.76 156.367 1562.57 154.952C1569.38 153.539 1576.45 152.831 1583.77 152.831C1588.7 152.831 1593.09 153.039 1596.92 153.455C1600.75 153.871 1603.86 154.411 1606.24 155.077V151.584C1606.24 145.263 1604.28 140.189 1600.37 136.363C1596.45 132.537 1589.64 130.624 1579.94 130.624C1573.47 130.624 1567.08 131.082 1560.78 131.997C1554.48 132.912 1549.03 134.201 1544.44 135.864L1539.58 105.922C1541.8 105.257 1544.56 104.549 1547.88 103.801C1551.2 103.052 1554.82 102.387 1558.74 101.805C1562.65 101.223 1566.78 100.724 1571.12 100.308C1575.47 99.8926 1579.85 99.6839 1584.28 99.6839V99.6839Z" fill="#021A3D"/>
<path d="M1781.7 113.152C1784.59 110.99 1789.23 108.702 1795.62 106.291C1802 103.879 1809.54 102.673 1818.22 102.673C1827.75 102.673 1836.22 104.336 1843.63 107.663C1851.04 110.99 1857.29 115.647 1862.4 121.636C1867.51 127.624 1871.38 134.735 1874.02 142.969C1876.66 151.204 1877.98 160.228 1877.98 170.043C1877.98 180.522 1876.41 189.92 1873.26 198.238C1870.11 206.555 1865.68 213.625 1859.98 219.447C1854.27 225.268 1847.46 229.718 1839.54 232.796C1831.63 235.873 1822.82 237.412 1813.11 237.412C1801.36 237.412 1791.66 236.663 1784 235.166C1776.34 233.669 1770.04 232.089 1765.1 230.425V43.7867L1781.7 40.7929V113.152V113.152ZM1781.7 219.197C1784.25 220.029 1788.04 220.819 1793.06 221.568C1798.09 222.316 1804.68 222.69 1812.86 222.69C1827.16 222.69 1838.65 218.158 1847.33 209.092C1856.02 200.026 1860.36 187.01 1860.36 170.043C1860.36 162.889 1859.59 156.111 1858.06 149.706C1856.53 143.302 1854.06 137.73 1850.65 132.989C1847.25 128.249 1842.78 124.464 1837.25 121.636C1831.71 118.808 1824.86 117.395 1816.69 117.395C1812.77 117.395 1809.03 117.768 1805.45 118.517C1801.88 119.265 1798.55 120.222 1795.49 121.386C1792.43 122.551 1789.74 123.799 1787.44 125.13C1785.15 126.46 1783.23 127.708 1781.7 128.872V219.197V219.197Z" fill="#0A68F5"/>
<path d="M1971.72 102.924C1977.17 102.924 1982.32 103.34 1987.17 104.172C1992.02 105.004 1995.39 105.835 1997.26 106.667L1993.94 120.64C1992.58 119.975 1989.81 119.267 1985.64 118.519C1981.47 117.77 1975.98 117.397 1969.17 117.397C1962.02 117.397 1956.27 117.896 1951.93 118.893C1947.59 119.891 1944.73 120.723 1943.37 121.388V234.42H1926.77V111.408C1931.03 109.578 1936.9 107.706 1944.39 105.794C1951.89 103.881 1961 102.924 1971.72 102.924Z" fill="#0A68F5"/>
<path d="M2076.65 222.696C2083.12 222.696 2088.78 222.488 2093.63 222.073C2098.49 221.656 2102.61 221.117 2106.02 220.451V175.038C2104.15 174.206 2101.17 173.334 2097.08 172.418C2092.99 171.504 2087.38 171.047 2080.23 171.047C2076.14 171.047 2071.88 171.338 2067.46 171.919C2063.03 172.502 2058.94 173.749 2055.2 175.663C2051.45 177.575 2048.39 180.195 2046 183.522C2043.62 186.849 2042.43 191.257 2042.43 196.747C2042.43 201.57 2043.24 205.646 2044.85 208.973C2046.47 212.3 2048.77 214.961 2051.75 216.958C2054.73 218.954 2058.3 220.409 2062.48 221.324C2066.65 222.239 2071.37 222.696 2076.65 222.696V222.696ZM2075.12 102.429C2083.8 102.429 2091.16 103.635 2097.21 106.047C2103.25 108.459 2108.15 111.786 2111.89 116.028C2115.64 120.27 2118.36 125.302 2120.07 131.123C2121.77 136.946 2122.62 143.266 2122.62 150.087V231.43C2120.92 231.929 2118.45 232.47 2115.21 233.051C2111.98 233.633 2108.23 234.258 2103.98 234.923C2099.72 235.588 2095 236.128 2089.8 236.545C2084.61 236.96 2079.29 237.168 2073.84 237.168C2066.86 237.168 2060.43 236.42 2054.56 234.923C2048.68 233.426 2043.58 231.055 2039.24 227.812C2034.89 224.568 2031.49 220.409 2029.02 215.336C2026.55 210.262 2025.32 204.066 2025.32 196.747C2025.32 189.76 2026.68 183.771 2029.4 178.782C2032.13 173.791 2035.96 169.674 2040.9 166.431C2045.83 163.186 2051.71 160.816 2058.52 159.319C2065.33 157.822 2072.73 157.074 2080.74 157.074C2083.12 157.074 2085.63 157.198 2088.27 157.447C2090.91 157.697 2093.46 158.03 2095.93 158.446C2098.4 158.862 2100.53 159.277 2102.32 159.694C2104.1 160.109 2105.34 160.484 2106.02 160.816V152.831C2106.02 148.341 2105.68 143.974 2105 139.732C2104.32 135.491 2102.83 131.664 2100.53 128.255C2098.23 124.844 2095 122.099 2090.82 120.02C2086.65 117.941 2081.16 116.902 2074.35 116.902C2064.65 116.902 2057.41 117.567 2052.64 118.897C2047.88 120.228 2044.39 121.309 2042.17 122.141L2039.87 107.918C2042.77 106.588 2047.24 105.34 2053.28 104.176C2059.33 103.011 2066.6 102.429 2075.12 102.429V102.429Z" fill="#0A68F5"/>
<path d="M2204.85 222.945C2214.39 222.945 2222.26 221.407 2228.48 218.329C2234.69 215.252 2237.8 210.054 2237.8 202.735C2237.8 199.241 2237.25 196.248 2236.14 193.753C2235.03 191.257 2233.2 189.012 2230.65 187.016C2228.09 185.019 2224.73 183.106 2220.56 181.277C2216.39 179.447 2211.24 177.284 2205.11 174.789C2200.17 172.793 2195.49 170.755 2191.06 168.676C2186.64 166.597 2182.72 164.184 2179.32 161.44C2175.91 158.696 2173.19 155.41 2171.14 151.584C2169.1 147.758 2168.08 143.1 2168.08 137.611C2168.08 127.131 2172.12 118.648 2180.21 112.16C2188.3 105.673 2199.41 102.429 2213.54 102.429C2222.56 102.429 2230.01 103.178 2235.88 104.675C2241.76 106.172 2245.89 107.503 2248.27 108.668L2244.44 123.139C2242.4 122.141 2238.95 120.81 2234.1 119.147C2229.24 117.483 2222.14 116.652 2212.77 116.652C2209.03 116.652 2205.49 117.027 2202.17 117.776C2198.85 118.527 2195.92 119.694 2193.36 121.277C2190.81 122.861 2188.76 124.861 2187.23 127.278C2185.7 129.694 2184.93 132.652 2184.93 136.153C2184.93 139.654 2185.61 142.655 2186.98 145.155C2188.34 147.656 2190.34 149.864 2192.98 151.781C2195.62 153.698 2198.85 155.484 2202.68 157.14C2206.51 158.795 2210.9 160.617 2215.84 162.606C2220.94 164.591 2225.84 166.62 2230.52 168.69C2235.2 170.759 2239.33 173.25 2242.91 176.162C2246.48 179.073 2249.38 182.566 2251.59 186.641C2253.8 190.716 2254.91 195.832 2254.91 201.987C2254.91 213.631 2250.44 222.446 2241.5 228.435C2232.56 234.424 2220.35 237.418 2204.85 237.418C2193.28 237.418 2184.42 236.461 2178.29 234.548C2172.16 232.636 2168.08 231.18 2166.04 230.181L2170.38 215.46C2170.89 215.793 2171.99 216.334 2173.7 217.082C2175.4 217.83 2177.7 218.662 2180.59 219.578C2183.49 220.492 2186.93 221.283 2190.94 221.947C2194.94 222.613 2199.58 222.945 2204.85 222.945V222.945Z" fill="#0A68F5"/>
<path d="M2316.49 234.418H2299.89V105.418H2316.49V234.418ZM2320.32 66.493C2320.32 70.3187 2319.13 73.3543 2316.75 75.6007C2314.37 77.846 2311.47 78.9692 2308.07 78.9692C2304.66 78.9692 2301.77 77.846 2299.38 75.6007C2297 73.3543 2295.81 70.3187 2295.81 66.493C2295.81 62.6672 2297 59.6317 2299.38 57.3853C2301.77 55.1399 2304.66 54.0168 2308.07 54.0168C2311.47 54.0168 2314.37 55.1399 2316.75 57.3853C2319.13 59.6317 2320.32 62.6672 2320.32 66.493Z" fill="#0A68F5"/>
<path d="M2406.62 236.663C2401 236.497 2396.11 235.79 2391.94 234.542C2387.76 233.295 2384.27 231.382 2381.46 228.804C2378.66 226.226 2376.53 222.899 2375.08 218.822C2373.63 214.747 2372.91 209.632 2372.91 203.478V43.7867L2389.51 40.7929V202.979C2389.51 206.97 2389.89 210.173 2390.66 212.585C2391.43 214.997 2392.57 216.91 2394.11 218.323C2395.64 219.738 2397.64 220.778 2400.11 221.443C2402.58 222.109 2405.51 222.69 2408.92 223.189L2406.62 236.663V236.663Z" fill="#0A68F5"/>
<path d="M332.757 63.7357C334.555 63.7357 335.828 63.5647 336.573 63.2218C337.319 62.8789 337.691 62.2149 337.691 61.2289C337.691 60.4586 337.209 59.7837 336.244 59.2052C335.279 58.6267 333.81 57.9737 331.837 57.2451C330.302 56.6875 328.91 56.109 327.66 55.5096C326.41 54.9103 325.346 54.1926 324.47 53.3567C323.593 52.5208 322.913 51.5249 322.43 50.3679C321.948 49.2119 321.706 47.8194 321.706 46.1913C321.706 43.0205 322.913 40.5137 325.325 38.6719C327.737 36.8291 331.048 35.9087 335.257 35.9087C337.362 35.9087 339.379 36.0906 341.309 36.4544C343.239 36.8192 344.773 37.2148 345.913 37.6432L344.203 45.0989C343.063 44.7132 341.824 44.3703 340.486 44.0701C339.15 43.77 337.648 43.6199 335.981 43.6199C332.911 43.6199 331.377 44.4558 331.377 46.1266C331.377 46.5123 331.442 46.8552 331.574 47.1554C331.706 47.4546 331.968 47.7438 332.363 48.0221C332.757 48.3014 333.295 48.6026 333.975 48.9266C334.655 49.2507 335.521 49.6065 336.573 49.9951C338.722 50.7724 340.497 51.5398 341.901 52.2952C343.304 53.0516 344.412 53.8676 345.223 54.7433C346.034 55.62 346.604 56.5921 346.933 57.6606C347.262 58.7301 347.426 59.9696 347.426 61.38C347.426 64.7147 346.144 67.2364 343.579 68.947C341.013 70.6566 337.384 71.5124 332.692 71.5124C329.622 71.5124 327.068 71.255 325.028 70.7411C322.99 70.2263 321.575 69.7979 320.786 69.4559L322.43 61.6792C324.097 62.3223 325.808 62.8252 327.561 63.189C329.315 63.5538 331.048 63.7357 332.757 63.7357V63.7357Z" fill="#021A3D"/>
<path d="M390.819 70.6147H381.019V36.8111H390.819V70.6147ZM391.741 27.0424C391.741 28.7987 391.159 30.1803 389.997 31.1872C388.835 32.1941 387.465 32.698 385.886 32.698C384.307 32.698 382.937 32.1941 381.775 31.1872C380.612 30.1803 380.032 28.7987 380.032 27.0424C380.032 25.2861 380.612 23.9045 381.775 22.8976C382.937 21.8907 384.307 21.3867 385.886 21.3867C387.465 21.3867 388.835 21.8907 389.997 22.8976C391.159 23.9045 391.741 25.2861 391.741 27.0424Z" fill="#021A3D"/>
<path d="M436.27 63.7357C438.067 63.7357 439.34 63.5647 440.085 63.2218C440.831 62.8789 441.203 62.2149 441.203 61.2289C441.203 60.4586 440.721 59.7837 439.756 59.2052C438.791 58.6267 437.322 57.9737 435.349 57.2451C433.814 56.6875 432.422 56.109 431.172 55.5096C429.922 54.9103 428.858 54.1926 427.982 53.3567C427.105 52.5208 426.425 51.5249 425.943 50.3679C425.46 49.2119 425.22 47.8194 425.22 46.1913C425.22 43.0205 426.425 40.5137 428.837 38.6719C431.249 36.8291 434.56 35.9087 438.769 35.9087C440.874 35.9087 442.892 36.0906 444.821 36.4544C446.751 36.8192 448.285 37.2148 449.425 37.6432L447.716 45.0989C446.576 44.7132 445.336 44.3703 443.999 44.0701C442.662 43.77 441.16 43.6199 439.493 43.6199C436.423 43.6199 434.889 44.4558 434.889 46.1266C434.889 46.5123 434.954 46.8552 435.086 47.1554C435.218 47.4546 435.48 47.7438 435.875 48.0221C436.27 48.3014 436.807 48.6026 437.487 48.9266C438.167 49.2507 439.033 49.6065 440.085 49.9951C442.234 50.7724 444.01 51.5398 445.413 52.2952C446.816 53.0516 447.924 53.8676 448.735 54.7433C449.547 55.62 450.116 56.5921 450.445 57.6606C450.774 58.7301 450.938 59.9696 450.938 61.38C450.938 64.7147 449.656 67.2364 447.091 68.947C444.525 70.6566 440.896 71.5124 436.204 71.5124C433.134 71.5124 430.58 71.255 428.541 70.7411C426.502 70.2263 425.087 69.7979 424.298 69.4559L425.943 61.6792C427.609 62.3223 429.32 62.8252 431.073 63.189C432.827 63.5538 434.56 63.7357 436.27 63.7357V63.7357Z" fill="#021A3D"/>
<path d="M484.254 28.3926L494.054 26.85V36.8115H505.829V44.7801H494.054V56.6699C494.054 58.6836 494.416 60.2899 495.14 61.4896C495.863 62.6893 497.321 63.2887 499.514 63.2887C500.567 63.2887 501.652 63.1922 502.77 63.0004C503.888 62.8076 504.908 62.5392 505.829 62.1963L507.21 69.652C506.026 70.1231 504.71 70.5297 503.263 70.8726C501.816 71.2155 500.041 71.3865 497.936 71.3865C495.261 71.3865 493.046 71.0336 491.292 70.3259C489.538 69.6192 488.134 68.6342 487.081 67.3699C486.03 66.1065 485.295 64.5748 484.878 62.7748C484.461 60.9757 484.254 58.9828 484.254 56.7981V28.3926V28.3926Z" fill="#021A3D"/>
<path d="M537.112 53.967C537.112 50.9682 537.584 48.3442 538.526 46.0948C539.469 43.8455 540.708 41.9709 542.243 40.471C543.777 38.9721 545.542 37.836 547.538 37.0647C549.533 36.2944 551.584 35.9087 553.688 35.9087C558.6 35.9087 562.481 37.3758 565.331 40.311C568.182 43.2451 569.607 47.5619 569.607 53.2603C569.607 53.8169 569.585 54.4282 569.541 55.0922C569.497 55.7561 569.453 56.3456 569.41 56.8594H547.177C547.395 58.8305 548.339 60.394 550.004 61.5509C551.671 62.7079 553.908 63.2854 556.715 63.2854C558.512 63.2854 560.277 63.1254 562.009 62.8043C563.742 62.4823 565.155 62.0867 566.252 61.6146L567.568 69.3913C567.042 69.6488 566.34 69.9052 565.462 70.1626C564.586 70.4191 563.61 70.6447 562.535 70.8375C561.461 71.0304 560.31 71.1904 559.082 71.3196C557.855 71.4478 556.626 71.5124 555.399 71.5124C552.286 71.5124 549.577 71.0622 547.275 70.1626C544.973 69.2631 543.066 68.0306 541.552 66.4671C540.039 64.9036 538.921 63.0498 538.197 60.9079C537.474 58.7659 537.112 56.4519 537.112 53.967V53.967ZM560.135 50.3043C560.091 49.4902 559.948 48.697 559.707 47.9257C559.466 47.1554 559.093 46.4696 558.589 45.8692C558.084 45.2698 557.449 44.7768 556.681 44.3912C555.914 44.0055 554.96 43.8127 553.82 43.8127C552.724 43.8127 551.781 43.9956 550.991 44.3594C550.202 44.7232 549.544 45.2052 549.018 45.8056C548.492 46.405 548.086 47.1017 547.801 47.8939C547.517 48.6871 547.308 49.4902 547.177 50.3043H560.135V50.3043Z" fill="#021A3D"/>
<path d="M622.502 52.6843C622.502 49.6001 622.096 47.4143 621.285 46.1291C620.474 44.844 619.082 44.2009 617.109 44.2009C616.494 44.2009 615.858 44.2337 615.2 44.2973C614.543 44.3619 613.907 44.4364 613.293 44.5229V70.6144H603.492V37.9677C604.325 37.753 605.3 37.5284 606.419 37.2928C607.538 37.0573 608.722 36.8426 609.971 36.6497C611.221 36.4569 612.504 36.3068 613.82 36.2005C615.135 36.0931 616.429 36.0394 617.7 36.0394C620.2 36.0394 622.228 36.3496 623.785 36.9708C625.342 37.592 626.624 38.3315 627.633 39.1883C629.036 38.2033 630.647 37.432 632.467 36.8744C634.287 36.3177 635.965 36.0394 637.5 36.0394C640.262 36.0394 642.532 36.4142 644.307 37.1636C646.084 37.914 647.498 38.9746 648.551 40.3453C649.603 41.716 650.327 43.3441 650.721 45.2296C651.116 47.1142 651.313 49.2144 651.313 51.5274V70.6144H641.512V52.6843C641.512 49.6001 641.107 47.4143 640.295 46.1291C639.484 44.844 638.091 44.2009 636.118 44.2009C635.592 44.2009 634.858 44.3301 633.915 44.5865C632.972 44.844 632.193 45.165 631.58 45.5507C631.887 46.5367 632.084 47.5754 632.171 48.6677C632.26 49.7601 632.303 50.928 632.303 52.1705V70.6144H622.502V52.6843V52.6843Z" fill="#021A3D"/>
<path d="M699.741 63.9285C700.705 63.9285 701.627 63.9066 702.503 63.8639C703.381 63.8212 704.083 63.7575 704.609 63.6711V56.4092C704.214 56.3237 703.622 56.2382 702.832 56.1527C702.043 56.0663 701.32 56.0235 700.662 56.0235C699.741 56.0235 698.874 56.0772 698.063 56.1845C697.252 56.2919 696.54 56.4947 695.925 56.7948C695.312 57.095 694.83 57.5015 694.479 58.0164C694.128 58.5303 693.952 59.1724 693.952 59.9437C693.952 61.4436 694.468 62.4823 695.498 63.0608C696.529 63.6393 697.943 63.9285 699.741 63.9285V63.9285ZM698.952 35.9087C701.846 35.9087 704.258 36.2298 706.187 36.8719C708.117 37.515 709.663 38.4364 710.825 39.6361C711.987 40.8358 712.809 42.2919 713.292 44.0055C713.774 45.7201 714.016 47.6265 714.016 49.7258V69.6488C712.612 69.9479 710.66 70.3018 708.161 70.7083C705.661 71.1159 702.636 71.3196 699.083 71.3196C696.847 71.3196 694.818 71.1268 692.999 70.7411C691.179 70.3555 689.611 69.7233 688.296 68.8446C686.98 67.967 685.971 66.8209 685.27 65.4065C684.568 63.9931 684.218 62.2577 684.218 60.2012C684.218 58.2301 684.623 56.5593 685.434 55.1886C686.245 53.8169 687.331 52.7246 688.69 51.9105C690.05 51.0965 691.607 50.508 693.361 50.1432C695.114 49.7795 696.934 49.5976 698.82 49.5976C700.092 49.5976 701.221 49.6502 702.208 49.7576C703.194 49.8649 703.994 50.0041 704.609 50.1751V49.2755C704.609 47.6474 704.105 46.3413 703.096 45.3553C702.087 44.3703 700.333 43.8773 697.834 43.8773C696.167 43.8773 694.523 43.9956 692.9 44.2312C691.278 44.4667 689.874 44.7987 688.69 45.2271L687.44 37.515C688.01 37.344 688.723 37.1611 689.578 36.9683C690.434 36.7764 691.365 36.6045 692.374 36.4544C693.383 36.3043 694.445 36.1761 695.565 36.0687C696.683 35.9624 697.812 35.9087 698.952 35.9087V35.9087Z" fill="#021A3D"/>
</svg>
