<?xml version="1.0" encoding="UTF-8" standalone="no"?>
<!DOCTYPE svg PUBLIC "-//W3C//DTD SVG 1.1//EN" "http://www.w3.org/Graphics/SVG/1.1/DTD/svg11.dtd">
<svg width="100%" height="100%" viewBox="0 0 613 241" version="1.1" xmlns="http://www.w3.org/2000/svg" xmlns:xlink="http://www.w3.org/1999/xlink" xml:space="preserve" xmlns:serif="http://www.serif.com/" style="fill-rule:evenodd;clip-rule:evenodd;stroke-linejoin:round;stroke-miterlimit:2;">
    <g id="Prancheta1" transform="matrix(1,0,0,1,120.5,-18.9079)">
        <rect x="-120.5" y="18.908" width="612.829" height="240.789" style="fill:none;"/>
        <g transform="matrix(0.207089,0,0,0.207089,-224.64,-162.725)">
            <path d="M1858.91,1722.03C1898.59,1722.03 1928,1716.81 1947.15,1706.37C1966.29,1695.92 1975.86,1679.22 1975.86,1656.24C1975.86,1632.57 1966.47,1613.78 1947.67,1599.86C1928.87,1585.93 1897.89,1570.27 1854.73,1552.87C1833.85,1544.51 1813.83,1535.98 1794.69,1527.28C1775.55,1518.58 1759.01,1508.31 1745.09,1496.48C1731.16,1484.64 1720.03,1470.37 1711.67,1453.66C1703.32,1436.95 1699.14,1416.42 1699.14,1392.05C1699.14,1344.02 1716.89,1305.9 1752.4,1277.71C1787.9,1249.52 1836.28,1235.42 1897.55,1235.42C1912.86,1235.42 1928.18,1236.29 1943.49,1238.03C1958.81,1239.77 1973.08,1241.86 1986.31,1244.3C1999.53,1246.73 2011.19,1249.34 2021.29,1252.13C2031.38,1254.91 2039.21,1257.35 2044.78,1259.44L2027.03,1342.98C2016.59,1337.4 2000.23,1331.66 1977.95,1325.75C1955.67,1319.83 1928.87,1316.87 1897.55,1316.87C1870.39,1316.87 1846.73,1322.26 1826.54,1333.05C1806.35,1343.85 1796.26,1360.73 1796.26,1383.7C1796.26,1395.53 1798.52,1405.98 1803.04,1415.03C1807.57,1424.08 1814.53,1432.26 1823.93,1439.57C1833.33,1446.88 1844.99,1453.66 1858.91,1459.93C1872.83,1466.19 1889.54,1472.81 1909.03,1479.77C1934.79,1489.52 1957.76,1499.09 1977.95,1508.49C1998.14,1517.88 2015.37,1528.85 2029.64,1541.38C2043.91,1553.91 2054.88,1569.05 2062.53,1586.8C2070.19,1604.55 2074.02,1626.31 2074.02,1652.07C2074.02,1702.19 2055.4,1740.13 2018.15,1765.89C1980.91,1791.64 1927.83,1804.52 1858.91,1804.52C1810.87,1804.52 1773.28,1800.52 1746.13,1792.52C1718.98,1784.51 1700.53,1778.42 1690.79,1774.24L1708.54,1690.7C1719.68,1694.88 1737.43,1701.14 1761.8,1709.5C1786.16,1717.85 1818.53,1722.03 1858.91,1722.03Z" style="fill:rgb(23,59,68);fill-rule:nonzero;"/>
            <path d="M2575.25,1521.54C2575.25,1458.19 2559.59,1409.46 2528.26,1375.35C2496.93,1341.23 2455.16,1324.18 2402.95,1324.18C2373.71,1324.18 2350.91,1325.22 2334.55,1327.31C2318.2,1329.4 2305.14,1331.84 2295.4,1334.62L2295.4,1677.13C2307.23,1686.87 2324.29,1696.27 2346.56,1705.32C2368.84,1714.37 2393.21,1718.9 2419.66,1718.9C2447.51,1718.9 2471.35,1713.85 2491.19,1703.76C2511.03,1693.66 2527.22,1679.74 2539.75,1661.99C2552.28,1644.24 2561.33,1623.35 2566.9,1599.33C2572.47,1575.32 2575.25,1549.38 2575.25,1521.54ZM2676.54,1521.54C2676.54,1562.61 2671.14,1600.55 2660.36,1635.36C2649.57,1670.17 2633.73,1700.1 2612.84,1725.16C2591.96,1750.22 2566.37,1769.72 2536.09,1783.64C2505.81,1797.56 2471.18,1804.52 2432.19,1804.52C2400.86,1804.52 2373.19,1800.35 2349.18,1791.99C2325.16,1783.64 2307.23,1775.63 2295.4,1767.98L2295.4,1985.18L2198.28,1985.18L2198.28,1265.7C2221.26,1260.13 2249.97,1254.04 2284.43,1247.43C2318.89,1240.81 2358.75,1237.51 2404,1237.51C2445.77,1237.51 2483.36,1244.12 2516.77,1257.35C2550.19,1270.58 2578.73,1289.37 2602.4,1313.74C2626.07,1338.1 2644.34,1367.86 2657.22,1403.02C2670.1,1438.17 2676.54,1477.68 2676.54,1521.54Z" style="fill:rgb(23,59,68);fill-rule:nonzero;"/>
            <path d="M2910.45,1273.01C2922.28,1265.35 2940.21,1257.35 2964.23,1248.99C2988.24,1240.64 3015.91,1236.46 3047.24,1236.46C3086.23,1236.46 3120.86,1243.42 3151.14,1257.35C3181.43,1271.27 3207.01,1290.76 3227.89,1315.83C3248.78,1340.89 3264.62,1370.82 3275.41,1405.63C3286.2,1440.44 3291.59,1478.72 3291.59,1520.49C3291.59,1564.35 3285.15,1603.86 3272.27,1639.01C3259.39,1674.17 3241.12,1703.93 3217.45,1728.3C3193.78,1752.66 3165.24,1771.46 3131.83,1784.68C3098.41,1797.91 3060.82,1804.52 3019.05,1804.52C2973.8,1804.52 2933.77,1801.39 2898.96,1795.13C2864.15,1788.86 2835.61,1782.6 2813.34,1776.33L2813.34,998.379L2910.45,981.671L2910.45,1273.01ZM2910.45,1707.41C2920.19,1710.19 2933.94,1712.81 2951.7,1715.24C2969.45,1717.68 2991.55,1718.9 3018,1718.9C3070.22,1718.9 3111.98,1701.67 3143.31,1667.21C3174.64,1632.75 3190.3,1583.84 3190.3,1520.49C3190.3,1492.65 3187.52,1466.54 3181.95,1442.18C3176.38,1417.81 3167.33,1396.75 3154.8,1379C3142.27,1361.25 3126.08,1347.33 3106.24,1337.23C3086.4,1327.14 3062.56,1322.09 3034.71,1322.09C3008.26,1322.09 2983.89,1326.62 2961.62,1335.66C2939.34,1344.71 2922.28,1354.11 2910.45,1363.86L2910.45,1707.41Z" style="fill:rgb(23,59,68);fill-rule:nonzero;"/>
        </g>
        <g transform="matrix(0.0397597,0,0,0.0397597,64.0988,-0.100721)">
            <path d="M1681.14,1630.36L1771.9,1616.09C1777,1652.46 1791.19,1680.33 1814.47,1699.7C1837.76,1719.08 1870.31,1728.77 1912.12,1728.77C1954.27,1728.77 1985.54,1720.18 2005.93,1703.02C2026.33,1685.85 2036.53,1665.71 2036.53,1642.6C2036.53,1621.86 2027.52,1605.55 2009.5,1593.65C1996.92,1585.49 1965.65,1575.12 1915.68,1562.55C1848.38,1545.55 1801.73,1530.85 1775.72,1518.44C1749.72,1506.04 1730,1488.87 1716.58,1466.95C1703.15,1445.02 1696.44,1420.8 1696.44,1394.29C1696.44,1370.15 1701.96,1347.81 1713.01,1327.24C1724.06,1306.67 1739.1,1289.59 1758.13,1276C1772.41,1265.46 1791.87,1256.54 1816.51,1249.23C1841.16,1241.92 1867.59,1238.27 1895.8,1238.27C1938.29,1238.27 1975.6,1244.38 2007.72,1256.62C2039.84,1268.86 2063.55,1285.43 2078.85,1306.34C2094.14,1327.24 2104.68,1355.2 2110.46,1390.21L2020.72,1402.45C2016.64,1374.57 2004.83,1352.82 1985.28,1337.18C1965.74,1321.55 1938.12,1313.73 1902.43,1313.73C1860.28,1313.73 1830.19,1320.7 1812.18,1334.63C1794.16,1348.57 1785.16,1364.89 1785.16,1383.58C1785.16,1395.48 1788.89,1406.19 1796.37,1415.7C1803.85,1425.56 1815.58,1433.72 1831.56,1440.18C1840.73,1443.58 1867.76,1451.39 1912.63,1463.63C1977.55,1480.97 2022.84,1495.16 2048.51,1506.21C2074.17,1517.25 2094.31,1533.32 2108.93,1554.39C2123.55,1575.47 2130.85,1601.64 2130.85,1632.91C2130.85,1663.5 2121.93,1692.31 2104.09,1719.34C2086.24,1746.36 2060.49,1767.26 2026.84,1782.05C1993.19,1796.84 1955.12,1804.23 1912.63,1804.23C1842.26,1804.23 1788.64,1789.61 1751.76,1760.38C1714.88,1731.15 1691.34,1687.81 1681.14,1630.36Z" style="fill:rgb(23,59,68);fill-rule:nonzero;"/>
            <path d="M2553.75,1150.06L2553.75,1044.51L2645.52,1044.51L2645.52,1150.06L2553.75,1150.06ZM2553.75,1791.99L2553.75,1250.5L2645.52,1250.5L2645.52,1791.99L2553.75,1791.99Z" style="fill:rgb(23,59,68);fill-rule:nonzero;"/>
            <path d="M3061.79,1630.36L3152.55,1616.09C3157.64,1652.46 3171.84,1680.33 3195.12,1699.7C3218.41,1719.08 3250.95,1728.77 3292.76,1728.77C3334.91,1728.77 3366.18,1720.18 3386.58,1703.02C3406.97,1685.85 3417.17,1665.71 3417.17,1642.6C3417.17,1621.86 3408.16,1605.55 3390.15,1593.65C3377.57,1585.49 3346.3,1575.12 3296.33,1562.55C3229.03,1545.55 3182.37,1530.85 3156.37,1518.44C3130.37,1506.04 3110.65,1488.87 3097.22,1466.95C3083.8,1445.02 3077.08,1420.8 3077.08,1394.29C3077.08,1370.15 3082.61,1347.81 3093.66,1327.24C3104.7,1306.67 3119.74,1289.59 3138.78,1276C3153.06,1265.46 3172.52,1256.54 3197.16,1249.23C3221.8,1241.92 3248.23,1238.27 3276.45,1238.27C3318.94,1238.27 3356.24,1244.38 3388.36,1256.62C3420.49,1268.86 3444.2,1285.43 3459.49,1306.34C3474.79,1327.24 3485.33,1355.2 3491.11,1390.21L3401.37,1402.45C3397.29,1374.57 3385.47,1352.82 3365.93,1337.18C3346.38,1321.55 3318.77,1313.73 3283.08,1313.73C3240.93,1313.73 3210.84,1320.7 3192.83,1334.63C3174.81,1348.57 3165.8,1364.89 3165.8,1383.58C3165.8,1395.48 3169.54,1406.19 3177.02,1415.7C3184.5,1425.56 3196.22,1433.72 3212.2,1440.18C3221.38,1443.58 3248.4,1451.39 3293.27,1463.63C3358.2,1480.97 3403.49,1495.16 3429.16,1506.21C3454.82,1517.25 3474.96,1533.32 3489.58,1554.39C3504.19,1575.47 3511.5,1601.64 3511.5,1632.91C3511.5,1663.5 3502.58,1692.31 3484.73,1719.34C3466.89,1746.36 3441.14,1767.26 3407.49,1782.05C3373.83,1796.84 3335.76,1804.23 3293.27,1804.23C3222.91,1804.23 3169.29,1789.61 3132.41,1760.38C3095.53,1731.15 3071.99,1687.81 3061.79,1630.36Z" style="fill:rgb(23,59,68);fill-rule:nonzero;"/>
            <path d="M4134.26,1709.9L4147.52,1790.97C4121.69,1796.41 4098.57,1799.13 4078.18,1799.13C4044.87,1799.13 4019.03,1793.86 4000.68,1783.33C3982.32,1772.79 3969.4,1758.94 3961.93,1741.77C3954.45,1724.6 3950.71,1688.49 3950.71,1633.42L3950.71,1321.89L3883.4,1321.89L3883.4,1250.5L3950.71,1250.5L3950.71,1116.4L4041.98,1061.34L4041.98,1250.5L4134.26,1250.5L4134.26,1321.89L4041.98,1321.89L4041.98,1638.52C4041.98,1664.69 4043.59,1681.52 4046.82,1689C4050.05,1696.48 4055.32,1702.42 4062.63,1706.84C4069.93,1711.26 4080.39,1713.47 4093.98,1713.47C4104.18,1713.47 4117.61,1712.28 4134.26,1709.9Z" style="fill:rgb(23,59,68);fill-rule:nonzero;"/>
            <path d="M4907.95,1617.62L5002.79,1629.34C4987.83,1684.75 4960.13,1727.75 4919.68,1758.34C4879.23,1788.93 4827.56,1804.23 4764.68,1804.23C4685.48,1804.23 4622.68,1779.84 4576.28,1731.06C4529.88,1682.29 4506.68,1613.88 4506.68,1525.84C4506.68,1434.74 4530.13,1364.04 4577.04,1313.73C4623.95,1263.42 4684.8,1238.27 4759.58,1238.27C4831.98,1238.27 4891.13,1262.91 4937.02,1312.2C4982.9,1361.49 5005.85,1430.83 5005.85,1520.23C5005.85,1525.67 5005.68,1533.83 5005.34,1544.7L4601.52,1544.7C4604.91,1604.19 4621.74,1649.74 4651.99,1681.35C4682.25,1712.96 4719.98,1728.77 4765.19,1728.77C4798.84,1728.77 4827.56,1719.93 4851.36,1702.26C4875.15,1684.58 4894.02,1656.37 4907.95,1617.62ZM4606.61,1469.24L4908.97,1469.24C4904.89,1423.69 4893.34,1389.53 4874.3,1366.76C4845.07,1331.4 4807.17,1313.73 4760.6,1313.73C4718.45,1313.73 4683.01,1327.84 4654.29,1356.05C4625.57,1384.26 4609.67,1421.99 4606.61,1469.24Z" style="fill:rgb(23,59,68);fill-rule:nonzero;"/>
            <path d="M5431.29,1791.99L5431.29,1250.5L5513.38,1250.5L5513.38,1326.48C5530.38,1299.96 5552.98,1278.63 5581.19,1262.49C5609.41,1246.34 5641.53,1238.27 5677.56,1238.27C5717.67,1238.27 5750.56,1246.59 5776.22,1263.25C5801.89,1279.91 5819.99,1303.19 5830.53,1333.1C5873.36,1269.88 5929.1,1238.27 5997.77,1238.27C6051.47,1238.27 6092.77,1253.14 6121.66,1282.88C6150.56,1312.62 6165.01,1358.43 6165.01,1420.29L6165.01,1791.99L6073.74,1791.99L6073.74,1450.88C6073.74,1414.17 6070.76,1387.75 6064.81,1371.6C6058.86,1355.45 6048.07,1342.45 6032.44,1332.59C6016.8,1322.74 5998.44,1317.81 5977.37,1317.81C5939.3,1317.81 5907.69,1330.47 5882.53,1355.79C5857.38,1381.12 5844.8,1421.65 5844.8,1477.4L5844.8,1791.99L5753.02,1791.99L5753.02,1440.18C5753.02,1399.39 5745.55,1368.8 5730.59,1348.4C5715.63,1328.01 5691.16,1317.81 5657.17,1317.81C5631.33,1317.81 5607.45,1324.61 5585.53,1338.2C5563.6,1351.8 5547.71,1371.68 5537.86,1397.86C5528,1424.03 5523.07,1461.76 5523.07,1511.05L5523.07,1791.99L5431.29,1791.99Z" style="fill:rgb(23,59,68);fill-rule:nonzero;"/>
            <path d="M6967.76,1725.2C6933.76,1754.09 6901.05,1774.49 6869.61,1786.38C6838.16,1798.28 6804.43,1804.23 6768.39,1804.23C6708.91,1804.23 6663.19,1789.7 6631.24,1760.64C6599.28,1731.57 6583.31,1694.44 6583.31,1649.23C6583.31,1622.71 6589.34,1598.5 6601.41,1576.57C6613.48,1554.64 6629.28,1537.05 6648.83,1523.8C6668.37,1510.54 6690.38,1500.51 6714.86,1493.71C6732.87,1488.96 6760.07,1484.37 6796.44,1479.95C6870.54,1471.11 6925.1,1460.57 6960.11,1448.34C6960.45,1435.76 6960.62,1427.77 6960.62,1424.37C6960.62,1386.98 6951.95,1360.64 6934.61,1345.34C6911.16,1324.61 6876.32,1314.24 6830.09,1314.24C6786.92,1314.24 6755.05,1321.8 6734.49,1336.93C6713.92,1352.05 6698.71,1378.82 6688.85,1417.23L6599.11,1405C6607.27,1366.59 6620.7,1335.57 6639.4,1311.94C6658.09,1288.32 6685.11,1270.13 6720.47,1257.39C6755.82,1244.64 6796.78,1238.27 6843.35,1238.27C6889.57,1238.27 6927.14,1243.7 6956.03,1254.58C6984.92,1265.46 7006.17,1279.14 7019.76,1295.63C7033.36,1312.11 7042.88,1332.93 7048.32,1358.09C7051.38,1373.72 7052.91,1401.94 7052.91,1442.73L7052.91,1565.1C7052.91,1650.42 7054.86,1704.38 7058.77,1726.98C7062.68,1749.59 7070.41,1771.26 7081.97,1791.99L6986.11,1791.99C6976.59,1772.96 6970.48,1750.69 6967.76,1725.2ZM6960.11,1520.23C6926.8,1533.83 6876.83,1545.38 6810.2,1554.9C6772.47,1560.34 6745.79,1566.46 6730.15,1573.26C6714.52,1580.05 6702.45,1590 6693.95,1603.08C6685.45,1616.17 6681.2,1630.7 6681.2,1646.68C6681.2,1671.15 6690.47,1691.55 6708.99,1707.86C6727.52,1724.18 6754.63,1732.34 6790.32,1732.34C6825.67,1732.34 6857.11,1724.6 6884.65,1709.14C6912.18,1693.67 6932.4,1672.51 6945.32,1645.66C6955.18,1624.92 6960.11,1594.33 6960.11,1553.88L6960.11,1520.23Z" style="fill:rgb(23,59,68);fill-rule:nonzero;"/>
        </g>
        <g transform="matrix(0.370704,0,0,0.370704,-283.827,-721.357)">
            <g transform="matrix(1.69258,-0.977213,0.485806,0.841441,-1900.61,613.873)">
                <path d="M811.159,2665.62C811.159,2662.59 810.56,2659.68 809.494,2657.53C808.427,2655.39 806.981,2654.18 805.473,2654.18C785.008,2654.18 715.244,2654.18 694.78,2654.18C693.272,2654.18 691.825,2655.39 690.759,2657.53C689.692,2659.68 689.093,2662.59 689.093,2665.62C689.093,2665.63 689.093,2665.63 689.093,2665.63C689.093,2668.67 689.692,2671.58 690.759,2673.72C691.825,2675.87 693.272,2677.07 694.78,2677.07C715.244,2677.07 785.008,2677.07 805.473,2677.07C806.981,2677.07 808.427,2675.87 809.494,2673.72C810.56,2671.58 811.159,2668.67 811.159,2665.63C811.159,2665.63 811.159,2665.63 811.159,2665.62Z" style="fill:rgb(0,89,255);"/>
            </g>
            <g transform="matrix(2.23831,-1.29229,0.485806,0.841441,-2276.67,874.452)">
                <path d="M811.159,2665.62C811.159,2659.3 809.234,2654.18 806.859,2654.18C787.951,2654.18 712.301,2654.18 693.393,2654.18C691.018,2654.18 689.093,2659.3 689.093,2665.62C689.093,2665.63 689.093,2665.63 689.093,2665.63C689.093,2671.95 691.018,2677.07 693.393,2677.07C712.301,2677.07 787.951,2677.07 806.859,2677.07C809.234,2677.07 811.159,2671.95 811.159,2665.63C811.159,2665.63 811.159,2665.63 811.159,2665.62Z" style="fill:rgb(0,89,255);"/>
            </g>
            <g transform="matrix(2.36158,-1.36346,0.485806,0.841441,-2327.12,946.949)">
                <path d="M811.159,2665.62C811.159,2662.59 810.73,2659.68 809.965,2657.53C809.201,2655.39 808.164,2654.18 807.083,2654.18C788.484,2654.18 711.768,2654.18 693.169,2654.18C692.088,2654.18 691.051,2655.39 690.287,2657.53C689.523,2659.68 689.093,2662.59 689.093,2665.62L689.093,2665.63C689.093,2668.67 689.523,2671.58 690.287,2673.72C691.051,2675.87 692.088,2677.07 693.169,2677.07C711.768,2677.07 788.484,2677.07 807.083,2677.07C808.164,2677.07 809.201,2675.87 809.965,2673.72C810.73,2671.58 811.159,2668.67 811.159,2665.63L811.159,2665.62Z" style="fill:rgb(0,89,255);"/>
            </g>
            <g transform="matrix(1.92625,-1.11212,0.485806,0.841441,-1955.92,777.52)">
                <path d="M811.159,2665.62C811.159,2659.3 808.922,2654.18 806.162,2654.18C786.404,2654.18 713.848,2654.18 694.09,2654.18C691.33,2654.18 689.093,2659.3 689.093,2665.62C689.093,2665.63 689.093,2665.63 689.093,2665.63C689.093,2671.95 691.33,2677.07 694.09,2677.07C713.848,2677.07 786.404,2677.07 806.162,2677.07C808.922,2677.07 811.159,2671.95 811.159,2665.63C811.159,2665.63 811.159,2665.63 811.159,2665.62Z" style="fill:rgb(0,89,255);"/>
            </g>
            <g transform="matrix(2.10683,-1.21638,0.485806,0.841441,-2040.73,873.664)">
                <path d="M811.159,2665.62C811.159,2659.3 809.114,2654.18 806.591,2654.18C787.337,2654.18 712.915,2654.18 693.662,2654.18C691.139,2654.18 689.093,2659.3 689.093,2665.62C689.093,2665.63 689.093,2665.63 689.093,2665.63C689.093,2671.95 691.139,2677.07 693.662,2677.07C712.915,2677.07 787.337,2677.07 806.591,2677.07C809.114,2677.07 811.159,2671.95 811.159,2665.63C811.159,2665.63 811.159,2665.63 811.159,2665.62Z" style="fill:rgb(0,89,255);"/>
            </g>
            <g transform="matrix(2.37524,-1.37134,0.485806,0.841441,-2201.54,1014.94)">
                <path d="M811.159,2665.62C811.159,2662.59 810.732,2659.68 809.972,2657.53C809.212,2655.39 808.182,2654.18 807.107,2654.18C788.541,2654.18 711.712,2654.18 693.145,2654.18C692.071,2654.18 691.04,2655.39 690.28,2657.53C689.52,2659.68 689.093,2662.59 689.093,2665.62C689.093,2665.63 689.093,2665.63 689.093,2665.63C689.093,2668.67 689.52,2671.58 690.28,2673.72C691.04,2675.87 692.071,2677.07 693.145,2677.07C711.712,2677.07 788.541,2677.07 807.107,2677.07C808.182,2677.07 809.212,2675.87 809.972,2673.72C810.732,2671.58 811.159,2668.67 811.159,2665.63C811.159,2665.63 811.159,2665.63 811.159,2665.62Z" style="fill:rgb(0,89,255);"/>
            </g>
            <g transform="matrix(2.49654,-1.44138,0.485806,0.841441,-2261.85,1095.11)">
                <path d="M811.159,2665.62C811.159,2662.59 810.753,2659.68 810.03,2657.53C809.307,2655.39 808.326,2654.18 807.304,2654.18C789.026,2654.18 711.226,2654.18 692.949,2654.18C691.926,2654.18 690.945,2655.39 690.222,2657.53C689.499,2659.68 689.093,2662.59 689.093,2665.62L689.093,2665.63C689.093,2668.67 689.499,2671.58 690.222,2673.72C690.945,2675.87 691.926,2677.07 692.949,2677.07C711.226,2677.07 789.026,2677.07 807.304,2677.07C808.326,2677.07 809.307,2675.87 810.03,2673.72C810.753,2671.58 811.159,2668.67 811.159,2665.63L811.159,2665.62Z" style="fill:rgb(0,89,255);"/>
            </g>
            <g transform="matrix(2.49654,-1.44138,0.485806,0.841441,-2261.85,1144.69)">
                <path d="M811.159,2665.62C811.159,2662.59 810.753,2659.68 810.03,2657.53C809.307,2655.39 808.326,2654.18 807.304,2654.18C789.026,2654.18 711.226,2654.18 692.949,2654.18C691.926,2654.18 690.945,2655.39 690.222,2657.53C689.499,2659.68 689.093,2662.59 689.093,2665.62L689.093,2665.63C689.093,2668.67 689.499,2671.58 690.222,2673.72C690.945,2675.87 691.926,2677.07 692.949,2677.07C711.226,2677.07 789.026,2677.07 807.304,2677.07C808.326,2677.07 809.307,2675.87 810.03,2673.72C810.753,2671.58 811.159,2668.67 811.159,2665.63L811.159,2665.62Z" style="fill:rgb(0,89,255);"/>
            </g>
            <g transform="matrix(1.77692,-1.02591,0.485806,0.841441,-1719.62,878.87)">
                <path d="M811.159,2665.62C811.159,2662.59 810.588,2659.68 809.573,2657.53C808.557,2655.39 807.179,2654.18 805.742,2654.18C785.54,2654.18 714.712,2654.18 694.51,2654.18C693.073,2654.18 691.695,2655.39 690.68,2657.53C689.664,2659.68 689.093,2662.59 689.093,2665.62L689.093,2665.63C689.093,2668.67 689.664,2671.58 690.68,2673.72C691.695,2675.87 693.073,2677.07 694.51,2677.07C714.712,2677.07 785.54,2677.07 805.742,2677.07C807.179,2677.07 808.557,2675.87 809.573,2673.72C810.588,2671.58 811.159,2668.67 811.159,2665.63L811.159,2665.62Z" style="fill:rgb(0,89,255);"/>
            </g>
            <g transform="matrix(1.59593,-0.921409,0.485806,0.841441,-1585.24,845.494)">
                <path d="M811.159,2665.62C811.159,2659.3 808.459,2654.18 805.128,2654.18C784.353,2654.18 715.899,2654.18 695.124,2654.18C691.793,2654.18 689.093,2659.3 689.093,2665.62C689.093,2665.63 689.093,2665.63 689.093,2665.63C689.093,2671.95 691.793,2677.07 695.124,2677.07C715.899,2677.07 784.353,2677.07 805.128,2677.07C808.459,2677.07 811.159,2671.95 811.159,2665.63C811.159,2665.63 811.159,2665.63 811.159,2665.62Z" style="fill:rgb(0,89,255);"/>
            </g>
            <g transform="matrix(1.13222,-0.653685,0.485806,0.841441,-1280.18,716.194)">
                <path d="M811.159,2665.62C811.159,2662.59 810.263,2659.68 808.669,2657.53C807.075,2655.39 804.913,2654.18 802.658,2654.18C780.287,2654.18 719.966,2654.18 697.594,2654.18C695.34,2654.18 693.177,2655.39 691.583,2657.53C689.989,2659.68 689.093,2662.59 689.093,2665.62C689.093,2665.63 689.093,2665.63 689.093,2665.63C689.093,2668.67 689.989,2671.58 691.583,2673.72C693.177,2675.87 695.34,2677.07 697.594,2677.07C719.966,2677.07 780.287,2677.07 802.658,2677.07C804.913,2677.07 807.075,2675.87 808.669,2673.72C810.263,2671.58 811.159,2668.67 811.159,2665.63C811.159,2665.63 811.159,2665.63 811.159,2665.62Z" style="fill:rgb(0,89,255);"/>
            </g>
            <g transform="matrix(0.448062,-0.258689,0.485806,0.841441,-794.388,482.084)">
                <path d="M811.159,2665.62C811.159,2662.59 808.896,2659.68 804.867,2657.53C800.839,2655.39 795.375,2654.18 789.678,2654.18C767.419,2654.18 732.833,2654.18 710.575,2654.18C704.877,2654.18 699.413,2655.39 695.385,2657.53C691.356,2659.68 689.093,2662.59 689.093,2665.62C689.093,2665.63 689.093,2665.63 689.093,2665.63C689.093,2668.67 691.356,2671.58 695.385,2673.72C699.413,2675.87 704.877,2677.07 710.575,2677.07C732.833,2677.07 767.419,2677.07 789.678,2677.07C795.375,2677.07 800.839,2675.87 804.867,2673.72C808.896,2671.58 811.159,2668.67 811.159,2665.63C811.159,2665.63 811.159,2665.63 811.159,2665.62Z" style="fill:rgb(0,89,255);"/>
            </g>
            <g transform="matrix(0.616869,-0.35615,0.485806,0.841441,-1115.36,121.166)">
                <path d="M811.159,2665.62C811.159,2662.59 809.515,2659.68 806.589,2657.53C803.663,2655.39 799.694,2654.18 795.556,2654.18C772.129,2654.18 728.123,2654.18 704.696,2654.18C700.558,2654.18 696.589,2655.39 693.663,2657.53C690.737,2659.68 689.093,2662.59 689.093,2665.62C689.093,2665.63 689.093,2665.63 689.093,2665.63C689.093,2668.67 690.737,2671.58 693.663,2673.72C696.589,2675.87 700.558,2677.07 704.696,2677.07C728.123,2677.07 772.129,2677.07 795.556,2677.07C799.694,2677.07 803.663,2675.87 806.589,2673.72C809.515,2671.58 811.159,2668.67 811.159,2665.63C811.159,2665.63 811.159,2665.63 811.159,2665.62Z" style="fill:rgb(0,89,255);"/>
            </g>
        </g>
    </g>
</svg>
